<?xml version="1.0" encoding="utf-8"?>
<!-- Generator: Adobe Illustrator 25.3.0, SVG Export Plug-In . SVG Version: 6.00 Build 0)  -->
<svg version="1.1" id="Layer_1" xmlns="http://www.w3.org/2000/svg" xmlns:xlink="http://www.w3.org/1999/xlink" x="0px" y="0px"
	 viewBox="0 0 32 32" style="enable-background:new 0 0 32 32;" xml:space="preserve">
<style type="text/css">
	.st0{fill:url(#SVGID_1_);}
	.st1{fill:url(#SVGID_2_);}
</style>
<linearGradient id="SVGID_1_" gradientUnits="userSpaceOnUse" x1="9.6405" y1="23.531" x2="23.9998" y2="23.531">
	<stop  offset="0" style="stop-color:#D5D85D"/>
	<stop  offset="1" style="stop-color:#2B9C73"/>
</linearGradient>
<path class="st0" d="M16.6,15c-5,0-7,3.3-7,8.5c0,5.2,1.8,8.5,6.8,8.5c0.3,0,0.7,0,0.9,0c4.5-0.3,6.6-3.5,6.6-8.4
	C24,18.3,21.6,15,16.6,15z M16.7,30.3c0,0,2-1.1,3.3-2.6c0.9-0.9,1.7-2.5,2.1-2.5c0.9-0.2,0.6,0.7,0.6,0.7
	C21.4,30.5,16.7,30.3,16.7,30.3z"/>
<g>
	
		<linearGradient id="SVGID_2_" gradientUnits="userSpaceOnUse" x1="-520.3061" y1="-499.9007" x2="-509.4887" y2="-499.9007" gradientTransform="matrix(-5.694208e-02 -0.9984 -0.9984 5.694208e-02 -508.045 -480.0236)">
		<stop  offset="0" style="stop-color:#D5D85D"/>
		<stop  offset="1" style="stop-color:#2B9C73"/>
	</linearGradient>
	<path class="st1" d="M17.8,11.1c-0.2-0.7,0.4-1.3,0.9-1.7c0.8-0.5,1.7-0.9,2.4-1.6c1-0.9,1.5-2.2,1.7-3.6c0.2-1.4,0.2-2.8,0-4.3
		c0.1,0.5,0.2,1.1,0,1.5c-0.1,0.2-0.3,0.3-0.4,0.4c-1.2,0.9-2.5,1.6-3.4,2.9s-1.5,3-1,4.6c1-2.1,3-3.3,3.7-5.5c0,1.5-0.5,2.9-1.4,4
		c-0.4,0.5-1,0.9-1.4,1.4s-0.8,1.2-0.8,1.9"/>
</g>
</svg>
