<svg xmlns="http://www.w3.org/2000/svg" viewBox="0 0 39.4 39.41"><defs><style>.cls-1{fill:#fdfefd;}</style></defs><g id="Capa_2" data-name="Capa 2"><g id="PAGINA2"><path class="cls-1" d="M29.87,19.71A10.17,10.17,0,1,1,19.72,9.53,10.16,10.16,0,0,1,29.87,19.71Zm-3.57,0a6.6,6.6,0,1,0-6.61,6.61A6.58,6.58,0,0,0,26.3,19.7Z"/><path class="cls-1" d="M32.65,8.11a2.37,2.37,0,1,1-2.37-2.35A2.36,2.36,0,0,1,32.65,8.11Z"/><path class="cls-1" d="M19.68,39.39c-3.77,0-7.53.07-11.29,0a8.51,8.51,0,0,1-8.32-7.5A9.21,9.21,0,0,1,0,30.58V8.81A8.53,8.53,0,0,1,6,.44,9.31,9.31,0,0,1,8.64,0C16,0,23.39,0,30.77,0a8.56,8.56,0,0,1,8.56,7.55,9.44,9.44,0,0,1,.07,1.3V30.54A8.54,8.54,0,0,1,33.16,39a10.36,10.36,0,0,1-2.72.35c-3.59,0-7.18,0-10.76,0Zm0-2c3.57,0,7.15,0,10.72,0a8.4,8.4,0,0,0,1.42-.09,6.55,6.55,0,0,0,5.55-6.69q0-10.87,0-21.77a7,7,0,0,0-.07-1.21A6.54,6.54,0,0,0,30.67,2H8.73a7.15,7.15,0,0,0-1.13.07A6.53,6.53,0,0,0,2,8.66C2,16,2,23.39,2,30.76a6,6,0,0,0,.58,2.71,6.51,6.51,0,0,0,6.27,3.9C12.48,37.38,16.08,37.37,19.68,37.37Z"/></g></g></svg>