<svg xmlns="http://www.w3.org/2000/svg" viewBox="0 0 24.16 24.17"><defs><style>.cls-1{fill:#fcfcfc;}.cls-2{fill:#fdfefd;}</style></defs><g id="Capa_2" data-name="Capa 2"><g id="PAGINA2"><path class="cls-1" d="M13.74,8.29A3.89,3.89,0,0,1,18,7.65a2.67,2.67,0,0,1,1.47,1.66,5.27,5.27,0,0,1,.3,1.89c0,3.07,0,6.14,0,9.2,0,.45-.09.54-.53.54h-3c-.36,0-.47-.11-.47-.47v-7a2.56,2.56,0,0,0,0-.39.83.83,0,0,0-.61-.72,1,1,0,0,0-1.35,1v7.1c0,.38-.11.48-.49.48h-3c-.36,0-.47-.11-.47-.47V6.79c0-.37.11-.47.47-.47h3c.36,0,.47.11.47.47ZM13.07,7H10.43V20.26h2.64V13.45a2.41,2.41,0,0,1,0-.54,1.49,1.49,0,0,1,1.12-1.21,1.67,1.67,0,0,1,1.75.47,1.83,1.83,0,0,1,.41,1.23q0,3.31,0,6.63v.23h2.66V20c0-3,0-6,0-9A4.81,4.81,0,0,0,18.93,10a2.29,2.29,0,0,0-1.69-1.88,3.58,3.58,0,0,0-1.81,0,2.16,2.16,0,0,0-1.4,1,3.5,3.5,0,0,0-.29.62c-.08.21-.21.33-.39.3a.36.36,0,0,1-.28-.4V7Z"/><path class="cls-1" d="M9.08,14.65v5.79c0,.4-.09.5-.5.5h-3c-.34,0-.45-.11-.45-.46V8.77c0-.35.11-.46.46-.46H8.63c.35,0,.45.11.45.46ZM8.41,9H5.78V20.26H8.41Z"/><path class="cls-1" d="M9.08,5.69a2,2,0,1,1-2-2A2,2,0,0,1,9.08,5.69Zm-2-1.36A1.33,1.33,0,1,0,8.42,5.66,1.34,1.34,0,0,0,7.09,4.33Z"/><path class="cls-1" d="M3.7,5.27H3A2.49,2.49,0,0,1,5.45,2.5v.68a1.83,1.83,0,0,0-1.33.66A2.36,2.36,0,0,0,3.7,5.27Z"/><path class="cls-2" d="M12.07,24.16c-2.31,0-4.62,0-6.92,0A5.21,5.21,0,0,1,0,19.55a7,7,0,0,1,0-.8V5.41A5.23,5.23,0,0,1,3.66.27,6,6,0,0,1,5.3,0H18.87a5.29,5.29,0,0,1,5.29,5.42c0,4.44,0,8.87,0,13.3a5.23,5.23,0,0,1-3.82,5.21,6.78,6.78,0,0,1-1.67.22c-2.2,0-4.4,0-6.6,0Zm0-1.24h6.57a5,5,0,0,0,.87-.06,4,4,0,0,0,3.41-4.1q0-6.68,0-13.35a4.53,4.53,0,0,0,0-.74,4,4,0,0,0-4.06-3.42H5.36a4,4,0,0,0-.7.05,4,4,0,0,0-3.41,4c0,4.52,0,9,0,13.55a3.85,3.85,0,0,0,.35,1.67,4,4,0,0,0,3.84,2.39Z"/></g></g></svg>