<svg xmlns="http://www.w3.org/2000/svg" xmlns:xlink="http://www.w3.org/1999/xlink" viewBox="0 0 134.73 58.72"><defs><style>.cls-1,.cls-2,.cls-3,.cls-4{fill:none;stroke-miterlimit:10;stroke-width:0.7px;}.cls-1{stroke:url(#linear-gradient);}.cls-2{stroke:url(#linear-gradient-2);}.cls-3{stroke:url(#linear-gradient-3);}.cls-4{stroke:url(#linear-gradient-4);}.cls-5{fill:#f9f9f9;}.cls-6{fill:url(#linear-gradient-5);}.cls-7{fill:url(#linear-gradient-6);}</style><linearGradient id="linear-gradient" x1="0.9" y1="30.43" x2="27.67" y2="29.56" gradientUnits="userSpaceOnUse"><stop offset="0" stop-color="#39a171"/><stop offset="0.41" stop-color="#7db969"/><stop offset="0.8" stop-color="#80ba68"/><stop offset="1" stop-color="#d5d85d"/></linearGradient><linearGradient id="linear-gradient-2" x1="29.86" y1="30.68" x2="62.03" y2="29.63" xlink:href="#linear-gradient"/><linearGradient id="linear-gradient-3" x1="65.08" y1="30.09" x2="98.68" y2="28.99" xlink:href="#linear-gradient"/><linearGradient id="linear-gradient-4" x1="100.23" y1="30.21" x2="134.92" y2="29.07" xlink:href="#linear-gradient"/><linearGradient id="linear-gradient-5" y1="27.56" x2="10.6" y2="27.56" gradientUnits="userSpaceOnUse"><stop offset="0" stop-color="#d5d85d"/><stop offset="1" stop-color="#2b9c73"/></linearGradient><linearGradient id="linear-gradient-6" x1="-1662.86" y1="-1559.99" x2="-1654.87" y2="-1559.99" gradientTransform="matrix(-0.06, -1, -1, 0.06, -1644.01, -1553.04)" xlink:href="#linear-gradient-5"/></defs><g id="Capa_2" data-name="Capa 2"><g id="footer"><path class="cls-1" d="M11.15,38.91c-.27,4.11.15,6.51,2.41,6.58s4.29-2.89,4.81-8A112,112,0,0,0,14.43,3.3c3.86-.18,5.78-.27,9.63-.42a144.32,144.32,0,0,1,3.3,34c-.47,9.53-6.68,20.4-17.19,20-8.12-.28-9.26-7.4-8-18.18Z"/><path class="cls-2" d="M44.86,58.2c-11.63-.12-13.62-13.38-12.54-22.31a168.23,168.23,0,0,0-3-33.21c3.85-.13,5.78-.19,9.63-.29A232.78,232.78,0,0,1,41.22,36c-.27,6.46,1.34,10.32,5,10.37s6-3.79,6.19-10.31c0-11.46-.41-22.46-1.33-33.88C55,2.08,56.9,2.06,60.77,2c.41,11.36.61,22.64.6,34C61.7,46.16,56.62,58.32,44.86,58.2Z"/><path class="cls-3" d="M92.78,56.74c-.63-2.17-.92-3.26-1.47-5.43-1.65,4.68-5,7.15-9,7.06-13.65-.29-16.81-17.54-16.82-28.79C65.44,17.83,68.9.83,83.12.64,91,.54,96.42,7.5,97.06,20.34l-9.38-.08c-.64-5-2.54-7.58-5.65-7.61-4.63,0-7.49,6.34-7.49,16.93s3,16.81,7.79,16.77c3.26,0,5.78-2.64,6.14-8.74l-5.64,0c-.12-4.35-.14-6.53-.1-10.88l14,0a140.5,140.5,0,0,0,2.42,29.8Z"/><path class="cls-4" d="M100.58,29.58c0-12.92,7.14-27.94,21.59-27.72,13.39.2,12.17,18.91,12.18,27.72S135.56,57,122.17,57.14C107.75,57.36,100.59,42.48,100.58,29.58Zm24.67,0c0-9.95-1-16.06-6.18-16.22s-9.4,6-9.39,16.22,4.31,16.21,9.39,16.06S125.26,39.45,125.25,29.58Z"/><path class="cls-5" d="M9.64,38.76c-.29,4.16.12,6.59,2.39,6.66s4.33-2.92,4.86-8.07A82,82,0,0,0,12.84,2.7c3.87-.18,5.81-.27,9.68-.43a142.83,142.83,0,0,1,3.39,34.42C25.43,46.31,19.15,57.34,8.54,57,.38,56.68-.69,49.46.65,38.55,4.25,38.64,6.05,38.69,9.64,38.76Z"/><path class="cls-5" d="M43.43,58.3c-11.76-.12-13.62-13.62-12.54-22.6A167.29,167.29,0,0,0,27.84,2.07c3.87-.13,5.81-.19,9.68-.29a230.11,230.11,0,0,1,2.31,34c-.28,6.55,1.32,10.46,5,10.51s6.06-3.84,6.23-10.44c0-11.61-.42-22.75-1.37-34.32,3.9-.06,5.84-.09,9.74-.11.42,11.51.62,22.93.61,34.45C60.39,46.05,55.33,58.42,43.43,58.3Z"/><path class="cls-5" d="M91.62,56.82c-.63-2.2-.93-3.3-1.49-5.5-1.64,4.75-5,7.24-9.08,7.16-13.77-.3-16.9-17.84-16.91-29.17C64.14,17.48,67.56.2,81.91,0c7.88-.11,13.35,7,14,20l-9.42-.07c-.63-5.06-2.54-7.69-5.67-7.71-4.64,0-7.52,6.42-7.52,17.14s3,17,7.83,17c3.28,0,5.8-2.67,6.15-8.85l-5.66,0c-.12-4.41-.14-6.62-.1-11l14.08,0a140.84,140.84,0,0,0,2.49,30.18C95.48,56.74,94.2,56.77,91.62,56.82Z"/><path class="cls-5" d="M99.4,29.31c0-13,7.47-28.54,21.8-28.07,13,.43,12.36,18.44,12.1,28.07-.25,9.28,1.87,27.7-12.1,27.91C106.64,57.45,99.41,42.33,99.4,29.31Zm24.76,0c0-10.08-1-16.26-6.16-16.42s-9.47,6-9.46,16.42S112.9,45.73,118,45.57,124.18,39.31,124.16,29.31Z"/><path class="cls-6" d="M5.15,21.3C1.44,21.3,0,23.71,0,27.57s1.33,6.25,5,6.25l.68,0c3.36-.24,4.88-2.58,4.88-6.23C10.6,23.71,8.84,21.3,5.15,21.3Zm.06,11.22a11.08,11.08,0,0,0,2.46-1.89c.63-.69,1.26-1.82,1.52-1.87.69-.13.47.51.47.51A4.52,4.52,0,0,1,5.21,32.52Z"/><path class="cls-7" d="M6,18.41c-.16-.5.26-1,.65-1.22A11.66,11.66,0,0,0,8.47,16a4.72,4.72,0,0,0,1.3-2.69,11.39,11.39,0,0,0,0-3.14,1.47,1.47,0,0,1,0,1.13,1.11,1.11,0,0,1-.31.3,11.37,11.37,0,0,0-2.54,2.11,3.67,3.67,0,0,0-.71,3.37C6.89,15.57,8.4,14.65,9,13a4.42,4.42,0,0,1-1,2.91c-.33.38-.71.67-1,1a2.13,2.13,0,0,0-.58,1.4"/></g></g></svg>