<svg xmlns="http://www.w3.org/2000/svg" viewBox="0 0 25.44 19.38"><defs><style>.cls-1{fill:#fdfefd;}</style></defs><g id="Capa_2" data-name="Capa 2"><g id="PAGINA2"><path class="cls-1" d="M25.44,2.39V17s0,0,0,0a2.74,2.74,0,0,1-3,2.35H6.3c-1.18,0-2.37,0-3.55,0A2.57,2.57,0,0,1,.5,18.19,6.63,6.63,0,0,1,0,17V2.39l0,0A2.74,2.74,0,0,1,3,0H22.69a2.57,2.57,0,0,1,2.25,1.19A7.06,7.06,0,0,1,25.44,2.39Zm-2.69-.88h-20l10,10.13ZM2.65,17.87H22.73l-7-7.13c-.79.8-1.56,1.59-2.35,2.37a.76.76,0,0,1-1.23,0L9.9,10.92a1.7,1.7,0,0,0-.19-.18ZM8.5,9.72l-7-7.1V16.8Zm8.33,0,7.1,7.07V2.56Z"/></g></g></svg>