<svg xmlns="http://www.w3.org/2000/svg" viewBox="0 0 23.36 23.33"><defs><style>.cls-1{fill:#fdfefd;}</style></defs><g id="Capa_2" data-name="Capa 2"><g id="PAGINA2"><path class="cls-1" d="M23.36,11.68a11.67,11.67,0,0,1-9.65,11.46,11.47,11.47,0,0,1-8.79-2,.38.38,0,0,0-.43-.05L1.11,22.48a.76.76,0,0,1-.84-.12A.78.78,0,0,1,0,21.52c.1-.36.19-.73.28-1.1.28-1.12.56-2.24.83-3.37a.59.59,0,0,0,0-.41,11.67,11.67,0,1,1,22-7.4c.06.3.11.59.15.89C23.28,10.64,23.31,11.16,23.36,11.68ZM1.9,20.49c.88-.35,1.7-.67,2.51-1a1,1,0,0,1,1,.15,9.94,9.94,0,0,0,8.43,1.9A10.11,10.11,0,1,0,1.56,11.44a10,10,0,0,0,1.11,4.82,1.07,1.07,0,0,1,.09.82c-.14.53-.27,1.06-.41,1.6S2.06,19.85,1.9,20.49Z"/><path class="cls-1" d="M10.6,10.48l2.25,2.25c.14-.17.3-.34.46-.51a2.33,2.33,0,0,1,3.37,0c.35.34.69.69,1,1a2.33,2.33,0,0,1,0,3.37l-.85.86a4,4,0,0,1-3.42,1.17,7.17,7.17,0,0,1-3.59-1.47,14.81,14.81,0,0,1-4.33-4.72,6,6,0,0,1-.85-3.17A3.94,3.94,0,0,1,5.86,6.47l.86-.85a2.32,2.32,0,0,1,3.35,0c.36.34.72.7,1.07,1.06a2.32,2.32,0,0,1,0,3.33A5.8,5.8,0,0,1,10.6,10.48Zm3.32,6.63a2.44,2.44,0,0,0,1.7-.6c.34-.32.66-.65,1-1a.79.79,0,0,0,0-1.2l-1-1a.78.78,0,0,0-1.21,0l-1,1a.78.78,0,0,1-1.22,0L9,11.14A.77.77,0,0,1,9,9.93l1-1a.78.78,0,0,0,0-1.18l-1-1a.79.79,0,0,0-1.2,0c-.29.29-.57.59-.87.88a2,2,0,0,0-.61,1,3.76,3.76,0,0,0,.4,2.73,12.53,12.53,0,0,0,5.16,5.19A4.36,4.36,0,0,0,13.92,17.11Z"/></g></g></svg>