<svg xmlns="http://www.w3.org/2000/svg" viewBox="0 0 24.16 24.17"><defs><style>.cls-1{fill:#fdfefd;}</style></defs><g id="Capa_2" data-name="Capa 2"><g id="PAGINA2"><path class="cls-1" d="M12.07,24.16c-2.31,0-4.62,0-6.92,0A5.21,5.21,0,0,1,0,19.55a7,7,0,0,1,0-.8V5.41A5.23,5.23,0,0,1,3.66.27,6,6,0,0,1,5.3,0H18.87a5.29,5.29,0,0,1,5.29,5.42c0,4.44,0,8.87,0,13.3a5.23,5.23,0,0,1-3.82,5.21,6.78,6.78,0,0,1-1.67.22c-2.2,0-4.4,0-6.6,0Zm0-1.24h6.57a5,5,0,0,0,.87-.06,4,4,0,0,0,3.41-4.1q0-6.68,0-13.35a4.53,4.53,0,0,0,0-.74,4,4,0,0,0-4.06-3.42H5.36a4,4,0,0,0-.7.05,4,4,0,0,0-3.41,4c0,4.52,0,9,0,13.55a3.85,3.85,0,0,0,.35,1.67,4,4,0,0,0,3.84,2.39Z"/><path class="cls-1" d="M11.16,14.22l-2.72,3.4L6.68,19.81a.63.63,0,1,1-1-.77l1.39-1.73c1-1.29,2.07-2.59,3.12-3.88a.26.26,0,0,0,0-.41C8.1,10.41,6,7.79,3.91,5.18a.71.71,0,0,1-.19-.64.6.6,0,0,1,.6-.47q1.83,0,3.66,0a.73.73,0,0,1,.58.34c1.09,1.37,2.19,2.73,3.29,4.1L13,9.94l1.28-1.6L17.4,4.46l.12-.15a.62.62,0,0,1,.87-.11.62.62,0,0,1,.1.89c-.28.36-.57.71-.86,1.07l-3.69,4.6-.13.18.14.19L20.23,19a.77.77,0,0,1,.23.61.61.61,0,0,1-.61.52c-1.23,0-2.45,0-3.68,0a.7.7,0,0,1-.56-.33l-3.92-4.89C11.52,14.66,11.35,14.44,11.16,14.22Zm7.38,4.63-.16-.2Q13.24,12.23,8.1,5.81A1.09,1.09,0,0,0,7,5.3a13,13,0,0,1-1.4,0l.17.24,3.62,4.5,6.93,8.64a.37.37,0,0,0,.23.15C17.21,18.86,17.85,18.85,18.54,18.85Z"/></g></g></svg>